<svg width="100" height="100" viewBox="0 0 100 100" fill="none" xmlns="http://www.w3.org/2000/svg">
<g clip-path="url(#clip0_94_99)">
<circle cx="50" cy="50" r="50" fill="url(#paint0_linear_94_99)"/>
<path fill-rule="evenodd" clip-rule="evenodd" d="M51.2015 99.9954V99.9954C51.168 99.9959 51.168 99.9971 51.2015 99.9954V99.9954Z" fill="#D9D9D9" fill-opacity="0.02"/>
<path d="M100.506 50.0001C100.506 43.9941 99.4471 38.2354 97.5057 32.9006C93.6318 22.2552 90.3201 29.9846 91.3158 41.2692C91.8124 46.8968 90.9017 53.1338 88.0061 60.0004C72.4301 96.9377 54.8736 99.8103 51.2015 99.9954C78.4952 99.6234 100.506 77.3822 100.506 50.0001Z" fill="#D9D9D9" fill-opacity="0.02"/>
<path d="M100.506 50.0001C100.506 43.9941 99.4471 38.2354 97.5057 32.9006C93.6318 22.2552 90.3201 29.9846 91.3158 41.2692C91.8124 46.8968 90.9017 53.1338 88.0061 60.0004C72.4301 96.9377 54.8736 99.8103 51.2015 99.9954C78.4952 99.6234 100.506 77.3822 100.506 50.0001Z" fill="#D9D9D9" fill-opacity="0.02"/>
<path fill-rule="evenodd" clip-rule="evenodd" d="M26.0061 93.5004C25.8067 93.5031 44.3137 98.3269 49.2894 99.6614C50.1081 99.881 50.1018 99.8951 49.2814 99.6818C44.2706 98.379 25.6133 93.5202 26.0061 93.5004Z" fill="#D9D9D9" fill-opacity="0.02"/>
<path d="M100.506 50C100.506 43.994 99.4471 38.2353 97.5058 32.9005C93.6318 22.2551 90.3201 29.9846 91.3158 41.2691C91.8124 46.8967 90.9016 53.1337 88.0061 60.0002C72.4301 96.9376 29.6783 93.3152 26.0061 93.5004C47.6526 105.116 69.5061 99.0966 82.0061 89.0002C94.5061 78.5004 100.506 62.9253 100.506 50Z" fill="#D9D9D9" fill-opacity="0.02"/>
<path d="M100.506 50C100.506 43.994 99.4471 38.2353 97.5058 32.9005C93.6318 22.2551 90.3201 29.9846 91.3158 41.2691C91.8124 46.8967 90.9016 53.1337 88.0061 60.0002C72.4301 96.9376 29.6783 93.3152 26.0061 93.5004C47.6526 105.116 69.5061 99.0966 82.0061 89.0002C94.5061 78.5004 100.506 62.9253 100.506 50Z" fill="#D9D9D9" fill-opacity="0.02"/>
<path fill-rule="evenodd" clip-rule="evenodd" d="M98.4505 38.4374V38.4374C98.4572 38.4701 98.4584 38.4699 98.4505 38.4374V38.4374Z" fill="#D9D9D9" fill-opacity="0.02"/>
<path d="M40.1184 -0.650267C34.2183 0.472677 28.7591 2.58967 23.8814 5.49429C14.148 11.2903 22.3604 13.0984 33.2597 10.0104C38.6953 8.47038 44.9925 8.19892 52.2794 9.75957C91.4776 18.1547 97.582 34.8646 98.4505 38.4374C92.982 11.6945 67.0176 -5.76987 40.1184 -0.650267Z" fill="#D9D9D9" fill-opacity="0.02"/>
<path d="M40.1184 -0.650267C34.2183 0.472677 28.7591 2.58967 23.8814 5.49429C14.148 11.2903 22.3604 13.0984 33.2597 10.0104C38.6953 8.47038 44.9925 8.19892 52.2794 9.75957C91.4776 18.1547 97.582 34.8646 98.4505 38.4374C92.982 11.6945 67.0176 -5.76987 40.1184 -0.650267Z" fill="#D9D9D9" fill-opacity="0.02"/>
<path fill-rule="evenodd" clip-rule="evenodd" d="M96.7808 64.4028C96.8207 64.5982 98.0992 45.5156 98.4799 40.3782C98.5426 39.5329 98.5576 39.5365 98.5014 40.3822C98.1585 45.5483 96.8736 64.785 96.7808 64.4028Z" fill="#D9D9D9" fill-opacity="0.02"/>
<path d="M40.1183 -0.650199C34.2182 0.472741 28.759 2.58972 23.8813 5.49433C14.1479 11.2903 22.3603 13.0984 33.2597 10.0104C38.6952 8.47044 44.9924 8.19899 52.2793 9.75964C91.4775 18.1548 95.9123 60.83 96.7808 64.4028C104.144 40.9663 94.1451 20.6236 81.8897 10.2317C69.2379 -0.084694 52.8157 -3.06684 40.1183 -0.650199Z" fill="#D9D9D9" fill-opacity="0.02"/>
<path d="M40.1183 -0.650199C34.2182 0.472741 28.759 2.58972 23.8813 5.49433C14.1479 11.2903 22.3603 13.0984 33.2597 10.0104C38.6952 8.47044 44.9924 8.19899 52.2793 9.75964C91.4775 18.1548 95.9123 60.83 96.7808 64.4028C104.144 40.9663 94.1451 20.6236 81.8897 10.2317C69.2379 -0.084694 52.8157 -3.06684 40.1183 -0.650199Z" fill="#D9D9D9" fill-opacity="0.02"/>
<path fill-rule="evenodd" clip-rule="evenodd" d="M27.2473 4.75087C27.36 4.58635 12.752 16.9307 8.79378 20.2278C8.1425 20.7703 8.13464 20.7571 8.78174 20.2096C12.7342 16.8654 27.4575 4.41847 27.2473 4.75087Z" fill="#D9D9D9" fill-opacity="0.02"/>
<path d="M19.8613 90.7042C24.7696 94.1656 30.086 96.619 35.5646 98.107C46.497 101.076 42.0888 93.9152 32.2929 88.2254C27.4077 85.3879 22.8356 81.0492 18.8928 74.7256C-2.31663 40.7089 25.2823 7.85857 27.2473 4.75087C5.27983 15.747 -2.39585 37.075 -1.34883 53.109C0.0279653 69.3756 9.29839 83.2551 19.8613 90.7042Z" fill="#D9D9D9" fill-opacity="0.02"/>
<path d="M19.8613 90.7042C24.7696 94.1656 30.086 96.619 35.5646 98.107C46.497 101.076 42.0888 93.9152 32.2929 88.2254C27.4077 85.3879 22.8356 81.0492 18.8928 74.7256C-2.31663 40.7089 25.2823 7.85857 27.2473 4.75087C5.27983 15.747 -2.39585 37.075 -1.34883 53.109C0.0279653 69.3756 9.29839 83.2551 19.8613 90.7042Z" fill="#D9D9D9" fill-opacity="0.02"/>
<g opacity="0.8" filter="url(#filter0_d_94_99)">
<path d="M38.8829 26.0655C38.6479 26.2561 38.4699 26.4043 38.3276 26.5243L37.7295 27.0183C37.9004 26.8913 38.0428 26.7642 38.3276 26.5243L38.8829 26.0655Z" fill="white"/>
<path d="M39.844 70.9759C40.1663 70.9227 40.4207 72.2247 40.4848 72.437L39.844 70.9759Z" fill="white"/>
<path d="M63.0397 13.1704C61.6557 20.0817 58.6185 24.1386 57.2729 25.3032H49.9039H42.5352C41.1896 24.1386 38.1524 20.0817 36.7684 13.1704C36.1533 11.6967 35.1024 11.9211 34.6539 12.2176C34.3549 12.3658 33.7568 12.8528 33.7568 13.6151C34.0558 16.2195 35.5509 21.8095 38.8829 26.0655L38.3276 26.5243C38.0428 26.7642 37.9004 26.8913 37.7295 27.0183C36.5548 26.1714 33.6799 23.7787 31.5782 20.9837C30.3363 19.3321 27.6056 21.2378 29.1434 23.0164C29.8696 24.0539 32.2062 26.8023 35.7432 29.4957C35.5509 30.1309 35.4228 30.5756 35.2306 31.2743C34.2908 30.9355 32.0268 30.1309 30.4249 28.924C29.4449 28.1857 27.7978 30.0039 28.823 31.0202C29.6133 31.6555 32.0524 33.1927 35.4869 34.2599C36.1276 36.2291 38.3062 39.1511 41.6381 39.4687H48.4942V40.5486C45.5468 42.1155 37.6014 43.6485 29.3997 37.2455C29.0152 36.3561 29.2358 36.2481 29.2715 36.1656C29.4637 35.7209 29.7841 35.4033 29.3997 35.1492C29.0921 34.9459 28.8871 35.3398 28.7589 35.5939L28.5026 36.9278C28.0541 36.462 26.952 35.1365 26.6444 34.5775C26.4394 34.171 26.0891 33.9846 25.8755 34.1964C25.7687 34.3234 25.773 34.6029 25.8755 34.7046C25.9699 34.7981 27.4133 36.6738 28.0541 37.2455C28.1182 37.5631 27.8619 37.3725 27.7978 37.3725C27.7802 37.4072 25.6833 34.7681 25.2988 35.0857C25.1833 35.1811 25.1314 35.4112 25.1707 35.5303C25.1945 35.6025 27.6696 37.8172 27.2852 38.0712C26.9648 38.2618 25.5176 36.3824 25.427 36.2926C25.2988 36.1656 25.2988 36.1021 25.0425 36.2926C24.8375 36.4451 25.427 37.0125 25.6833 37.2455C27.797 40.103 33.5855 45.7153 43.9339 45.0594L43.9449 45.0587C44.9967 45.1456 44.9369 48.2106 44.7106 50.3946C44.6722 50.765 44.629 51.1101 44.5856 51.411C44.3934 51.538 43.8295 51.9446 43.1119 52.5544C42.2148 53.5708 40.2285 56.1498 39.4596 58.3349C38.4984 61.0664 37.9858 63.0991 37.8577 66.974C37.7295 70.8489 38.178 72.564 38.178 72.564C38.2433 73.0669 38.6385 73.1056 38.8829 73.0087C39.2032 72.8816 38.4343 71.1665 38.8188 71.1665C39.2032 71.1665 39.2673 72.564 39.3955 72.6911C39.4437 72.7389 39.6518 72.9451 39.9081 72.6275C40.1644 72.3099 39.4596 71.0395 39.844 70.9759C40.1663 70.9227 40.4207 72.2247 40.4848 72.437C40.5488 72.5423 40.8723 72.7515 41.1255 72.5005C41.2537 72.3734 40.5382 70.5417 40.6129 70.0231C40.6384 69.8461 40.8963 70.1072 41.3177 70.4678C41.574 70.6583 41.9722 70.4061 41.7022 69.8325C40.8446 69.2439 40.921 68.8824 40.8692 68.6256C40.4207 66.4023 41.51 62.4639 41.51 62.4639C42.5352 58.7796 42.343 58.5255 44.0089 55.9211C45.6749 53.3167 44.9701 58.1444 45.0982 58.7796C45.2264 59.4148 45.4827 62.0193 45.6108 62.718C45.7134 63.277 48.1311 79.3821 49.3272 87.3648C49.4328 87.574 49.6927 87.9901 49.8967 87.9998L50.0321 88C50.2371 88 50.5019 87.5765 50.6087 87.3648C51.8048 79.3821 54.2226 63.277 54.3251 62.718C54.4533 62.0193 54.7096 59.4148 54.8377 58.7796C54.9393 58.2762 54.5177 55.1395 55.1676 55.156C55.3378 55.1603 55.5814 55.3807 55.927 55.9211C57.593 58.5255 57.4008 58.7796 58.426 62.4639C59.4512 66.1482 59.0667 68.435 59.0026 68.6891C58.9386 68.9432 59.0273 69.3074 58.1697 69.8961C57.8996 70.4696 58.2978 70.7219 58.5541 70.5313C58.9756 70.1707 59.2334 69.9096 59.2589 70.0866C59.3337 70.6052 58.6182 72.437 58.7463 72.564C58.9995 72.815 59.323 72.6058 59.3871 72.5005C59.4512 72.2882 59.7056 70.9862 60.0278 71.0395C60.4123 71.103 59.7075 72.3734 59.9638 72.6911C60.2201 73.0087 60.4282 72.8024 60.4764 72.7546C60.6045 72.6275 60.6686 71.23 61.0531 71.23C61.4375 71.23 60.7968 72.8816 61.1171 73.0087C61.3624 73.1059 61.6298 73.0722 61.6938 72.564C61.7579 72.0558 62.3346 70.2137 62.0783 66.974C61.822 63.7344 61.4375 61.0664 60.4764 58.3349C59.7075 56.1498 57.7211 53.5708 56.8241 52.5544C56.1064 51.9446 55.5426 51.538 55.3503 51.411C55.3096 49.3914 55.3487 45.4452 55.8053 45.0858C56.2474 44.6141 56.6318 44.8682 56.6959 44.8682C60.5189 44.9529 68.7293 43.7883 74.3167 37.1819C74.573 36.949 75.1625 36.3816 74.9575 36.2291C74.7012 36.0385 74.7012 36.1021 74.573 36.2291C74.4824 36.3189 73.0352 38.1983 72.7148 38.0077C72.3304 37.7536 74.8055 35.539 74.8293 35.4668C74.8686 35.3477 74.8167 35.1176 74.7012 35.0222C74.3167 34.7046 72.2198 37.3437 72.2022 37.309C72.1382 37.309 71.8818 37.4995 71.9459 37.1819C72.5867 36.6102 74.0301 34.7346 74.1245 34.641C74.1758 33.7771 73.6333 34.1964 73.3556 34.514C73.048 35.073 71.9459 36.3985 71.4974 36.8643L71.2411 35.5303C71.1129 35.2763 70.9079 34.8824 70.6003 35.0857C70.2159 35.3398 70.5363 35.6574 70.7285 36.102C70.7642 36.1846 70.9848 36.2926 70.6003 37.1819C67.2257 40.104 58.6438 44.8682 51.3136 40.5486L51.314 39.4687H58.17C61.5019 39.1511 63.6805 36.2291 64.3212 34.2599C67.7557 33.1927 70.1948 31.6555 70.9851 31.0202C72.0103 30.0039 70.3632 28.1857 69.3832 28.924C67.809 30.1101 65.5954 30.9076 64.6275 31.2563L64.5775 31.2743C64.3853 30.5756 64.2572 30.1309 64.0649 29.4957C67.6019 26.8023 69.9385 24.0539 70.6647 23.0164C72.2025 21.2378 69.4718 19.3321 68.2298 20.9837C66.1282 23.7787 63.2533 26.1714 62.0786 27.0183C61.9077 26.8913 61.7653 26.7642 61.4805 26.5243L60.9252 26.0655C64.2572 21.8095 65.7523 16.2195 66.0513 13.6151C66.1152 13.361 66.0254 12.7257 65.1542 12.2176C64.7057 11.9211 63.6548 11.6967 63.0397 13.1704Z" fill="white"/>
</g>
</g>
<defs>
<filter id="filter0_d_94_99" x="9" y="-4" width="82" height="108" filterUnits="userSpaceOnUse" color-interpolation-filters="sRGB">
<feFlood flood-opacity="0" result="BackgroundImageFix"/>
<feColorMatrix in="SourceAlpha" type="matrix" values="0 0 0 0 0 0 0 0 0 0 0 0 0 0 0 0 0 0 127 0" result="hardAlpha"/>
<feOffset/>
<feGaussianBlur stdDeviation="8"/>
<feComposite in2="hardAlpha" operator="out"/>
<feColorMatrix type="matrix" values="0 0 0 0 1 0 0 0 0 1 0 0 0 0 1 0 0 0 1 0"/>
<feBlend mode="normal" in2="BackgroundImageFix" result="effect1_dropShadow_94_99"/>
<feBlend mode="normal" in="SourceGraphic" in2="effect1_dropShadow_94_99" result="shape"/>
</filter>
<linearGradient id="paint0_linear_94_99" x1="50" y1="0" x2="50" y2="100" gradientUnits="userSpaceOnUse">
<stop stop-color="white"/>
<stop offset="0.51" stop-color="#2200FF"/>
<stop offset="1" stop-color="#FF0000"/>
</linearGradient>
<clipPath id="clip0_94_99">
<rect width="100" height="100" rx="50" fill="white"/>
</clipPath>
</defs>
</svg>
