<svg width="141" height="141" viewBox="0 0 141 141" fill="none" xmlns="http://www.w3.org/2000/svg">
<path d="M41.0548 71.5926C38.0548 69.0926 42.0548 65.5926 45.5548 67.5926C47.2215 68.426 53.0547 72.5926 55.5548 77.5926C58.6454 83.7736 61.7025 93.8456 61.5547 98.5926C61.4679 101.378 59.2036 101.252 59.0547 99.0926C58.0547 84.5926 44.0548 74.0926 41.0548 71.5926Z" fill="#000000"/>
<path d="M94.9999 67.5C98.4999 65.5 102.5 69 99.4999 71.5C96.4999 74 82.5 84.5 81.5 99C81.3511 101.159 79.0868 101.286 79 98.5C78.8522 93.753 81.9093 83.6809 84.9999 77.5C87.5 72.5 93.3332 68.3333 94.9999 67.5Z" fill="#000000"/>
</svg>
