<svg width="141" height="141" viewBox="0 0 141 141" fill="none" xmlns="http://www.w3.org/2000/svg">
<path d="M72.8226 58.3253C72.8226 56.5133 80.2593 56.0602 83.9776 56.0602C87.6959 56.0602 95.1325 56.5133 95.1325 58.3253C95.1325 60.5904 94.3157 65.7839 92.3438 67.3855C89.5551 69.6506 87.5308 69.6506 83.9776 69.6506C81.1281 69.6506 78.4001 69.6506 75.6114 67.3855L72.8226 58.3253Z" fill="#000000"/>
<path d="M75.6114 67.3855C71.6675 64.1823 72.8226 59.8353 72.8226 58.3253L75.6114 67.3855Z" fill="#000000"/>
<path d="M69.8762 58.3253C69.8762 56.5133 62.4396 56.0602 58.7212 56.0602C55.0029 56.0602 47.5663 56.5133 47.5663 58.3253C47.5663 60.5904 48.3831 65.7839 50.355 67.3855C53.1438 69.6506 55.168 69.6506 58.7212 69.6506C61.5707 69.6506 64.2987 69.6506 67.0875 67.3855L69.8762 58.3253Z" fill="#000000"/>
<path d="M67.0875 67.3855C71.0313 64.1823 69.8762 59.8353 69.8762 58.3253L67.0875 67.3855Z" fill="#000000"/>
</svg>
