<svg width="141" height="141" viewBox="0 0 141 141" fill="none" xmlns="http://www.w3.org/2000/svg">
<path d="M90.8856 46.7702C101.006 52.3867 108.27 47.7234 111.271 43.3193C114.669 38.3339 128.259 50.9639 101.508 58.2105C97.2612 57.9274 90.8856 56.2834 90.8856 46.7702Z" fill="#000000"/>
<path d="M90.8856 46.7702C101.006 52.3867 108.27 47.7234 111.271 43.3193C114.669 38.3339 128.259 50.9639 101.508 58.2105C97.2612 57.9274 90.8856 56.2834 90.8856 46.7702Z" fill="#000000"/>
<path d="M48.4157 46.7702C38.2948 52.3867 31.8197 47.7767 28.8182 43.3726C25.4207 38.3872 15.2892 50.9639 38.5812 58.2638C42.8282 57.9807 48.4157 56.2834 48.4157 46.7702Z" fill="#000000"/>
<path d="M48.4157 46.7702C38.2948 52.3867 31.8197 47.7767 28.8182 43.3726C25.4207 38.3872 15.2892 50.9639 38.5812 58.2638C42.8282 57.9807 48.4157 56.2834 48.4157 46.7702Z" fill="#000000"/>
</svg>
