<svg width="141" height="141" viewBox="0 0 141 141" fill="none" xmlns="http://www.w3.org/2000/svg">
<path d="M71.5302 72.0617C71.5302 71.2123 75.5141 71 77.5061 71C79.498 71 83.4819 71.2123 83.4819 72.0617C83.4819 73.1235 83.0444 75.558 81.988 76.3087C80.494 77.3705 79.4096 77.3705 77.5061 77.3705C75.9796 77.3705 74.5181 77.3705 73.0242 76.3087L71.5302 72.0617Z" fill="#000000"/>
<path d="M73.0242 76.3087C70.9114 74.8072 71.5302 72.7696 71.5302 72.0617L73.0242 76.3087Z" fill="#000000"/>
<path d="M71.4457 79.494C71.4457 78.6446 74.0201 78.4322 76.0121 78.4322C78.004 78.4322 80.4095 78.6446 80.4095 79.494C80.4095 80.5557 79.972 82.9902 78.9156 83.741C77.4216 84.8027 77.9156 84.8027 76.0121 84.8027C74.4856 84.8027 74.4337 84.8027 72.9397 83.741L71.4457 79.494Z" fill="#000000"/>
<path d="M72.9397 83.741C70.8269 82.2394 71.4457 80.2018 71.4457 79.494L72.9397 83.741Z" fill="#000000"/>
<path d="M71.5302 86.9262C71.5302 86.0768 74.1046 85.8645 76.0965 85.8645C78.0885 85.8645 79 86.0768 79 86.9262C79 87.988 78.5624 90.4224 77.5061 91.1732C76.0121 92.2349 74.9937 92.2349 74.5181 92.2349C73.0241 92.2349 74.5181 92.2349 73.0241 92.2349L71.5302 86.9262Z" fill="#000000"/>
<path d="M73.0241 92.2349C70.0362 92.2349 71.5302 87.634 71.5302 86.9262L73.0241 92.2349Z" fill="#000000"/>
<path d="M71.4457 94.3584C71.4457 93.509 74.0201 93.2967 76.0121 93.2967C78.004 93.2967 77.506 93.509 77.506 94.3584C77.506 95.4202 75.9276 100.729 76.0121 102.852C76.0718 104.353 74.7403 104.976 74.2648 104.976C74.1803 104.976 72.3767 104.976 71.4457 104.976L71.4457 94.3584Z" fill="#000000"/>
<path d="M71.4457 104.976C70.5147 104.976 71.4457 95.0663 71.4457 94.3584L71.4457 104.976Z" fill="#000000"/>
<path d="M69.9517 72.0617C69.9517 71.2123 65.9678 71 63.9759 71C61.9839 71 58 71.2123 58 72.0617C58 73.1235 58.4376 75.558 59.494 76.3087C60.9879 77.3705 62.0724 77.3705 63.9759 77.3705C65.5024 77.3705 66.9638 77.3705 68.4578 76.3087L69.9517 72.0617Z" fill="#000000"/>
<path d="M68.4578 76.3087C70.5706 74.8072 69.9517 72.7696 69.9517 72.0617L68.4578 76.3087Z" fill="#000000"/>
<path d="M70.0362 79.494C70.0362 78.6446 67.4618 78.4322 65.4698 78.4322C63.4779 78.4322 61.0724 78.6446 61.0724 79.494C61.0724 80.5557 61.51 82.9902 62.5664 83.741C64.0603 84.8027 63.5663 84.8027 65.4698 84.8027C66.9963 84.8027 67.0483 84.8027 68.5422 83.741L70.0362 79.494Z" fill="#000000"/>
<path d="M68.5422 83.741C70.655 82.2394 70.0362 80.2018 70.0362 79.494L68.5422 83.741Z" fill="#000000"/>
<path d="M69.9518 86.9262C69.9518 86.0768 67.3774 85.8645 65.3854 85.8645C63.3934 85.8645 62.4819 86.0768 62.4819 86.9262C62.4819 87.988 62.9195 90.4224 63.9759 91.1732C65.4698 92.2349 66.4882 92.2349 66.9638 92.2349C68.4578 92.2349 66.9638 92.2349 68.4578 92.2349L69.9518 86.9262Z" fill="#000000"/>
<path d="M68.4578 92.2349C71.4457 92.2349 69.9518 87.634 69.9518 86.9262L68.4578 92.2349Z" fill="#000000"/>
<path d="M70.0362 94.3584C70.0362 93.509 67.4618 93.2967 65.4698 93.2967C63.4779 93.2967 63.9759 93.509 63.9759 94.3584C63.9759 95.4202 65.5543 100.729 65.4698 102.852C65.4102 104.353 66.7416 104.976 67.2172 104.976C67.3016 104.976 69.0208 104.976 69.9517 104.976L70.0362 94.3584Z" fill="#000000"/>
<path d="M69.9517 104.976C70.8827 104.976 70.0362 95.0663 70.0362 94.3584L69.9517 104.976Z" fill="#000000"/>
<path d="M71.5302 72.0617C71.5302 71.2123 75.5141 71 77.5061 71C79.498 71 83.4819 71.2123 83.4819 72.0617C83.4819 73.1235 83.0444 75.558 81.988 76.3087C80.494 77.3705 79.4096 77.3705 77.5061 77.3705C75.9796 77.3705 74.5181 77.3705 73.0242 76.3087L71.5302 72.0617Z" fill="#000000"/>
<path d="M73.0242 76.3087C70.9114 74.8072 71.5302 72.7696 71.5302 72.0617L73.0242 76.3087Z" fill="#000000"/>
<path d="M69.9517 72.0617C69.9517 71.2123 65.9678 71 63.9759 71C61.9839 71 58 71.2123 58 72.0617C58 73.1235 58.4376 75.558 59.494 76.3087C60.9879 77.3705 62.0724 77.3705 63.9759 77.3705C65.5024 77.3705 66.9638 77.3705 68.4578 76.3087L69.9517 72.0617Z" fill="#000000"/>
<path d="M68.4578 76.3087C70.5706 74.8072 69.9517 72.7696 69.9517 72.0617L68.4578 76.3087Z" fill="#000000"/>
</svg>
