<svg width="141" height="141" viewBox="0 0 141 141" fill="none" xmlns="http://www.w3.org/2000/svg">
<path d="M87.5 130.82C88.5 130.82 93.5 123.82 93 120.32C92.5 116.82 91 118.32 88 118.32C85 118.32 86 120.32 87 122.32C87.8 123.92 86.8333 125.486 86.5 126.82C86.5 127.486 85.4604 130.82 87.5 130.82Z" fill="#000000"/>
<path d="M48 120.5C47.5 124 52.5 131 53.5 131C55.5396 131 54.5 127.667 54.5 127C54.1667 125.667 53.2 124.1 54 122.5C55 120.5 56 118.5 53 118.5C50 118.5 48.5 117 48 120.5Z" fill="#000000"/>
</svg>
