<svg width="141" height="141" viewBox="0 0 141 141" fill="none" xmlns="http://www.w3.org/2000/svg">
<path d="M45.689 5.14649C4.29416 16.3251 -11.6179 54.6788 25.5342 67.574H25.2327C25.4075 67.5976 25.5835 67.6252 25.7576 67.6511C28.2319 68.4984 30.9432 69.2299 33.8904 69.8377C47.7417 75.278 57.7604 88.461 58.5728 101.344C49.3434 107.704 42.1953 118.65 42.1953 118.65L49.4326 129.304L38.081 135.768H60.6548C49.5221 124.632 57.4162 112.11 70.6033 112.11C83.9707 112.11 90.967 125.359 80.5603 135.768H102.902L91.7827 129.304L99.0208 118.65C99.0208 118.65 91.7571 107.525 82.4197 101.189C83.3021 88.3552 93.2977 75.2563 107.093 69.8374C110.042 69.2296 112.752 68.499 115.226 67.6513C115.4 67.6252 115.576 67.5976 115.751 67.5742H115.441C152.599 54.6804 136.691 16.3257 95.2945 5.14594C84.0801 15.9881 97.0956 33.1485 107.309 20.8093C117.471 39.8333 109.678 55.9456 87.4035 43.7786C84.1318 50.5234 77.9815 55.1726 70.6906 55.1726C63.3368 55.1726 57.1502 50.4449 53.9 43.6062C31.3802 56.1034 23.466 39.9236 33.6761 20.8093C43.8904 33.1482 56.904 15.9881 45.689 5.14649ZM70.6917 15.0385C63.1493 15.0385 56.5559 22.6272 56.5559 32.5561C56.5559 42.4856 63.1493 49.9043 70.6917 49.9043C78.2341 49.9043 84.8266 42.4853 84.8266 32.5564C84.8266 22.6264 78.2341 15.0385 70.6917 15.0385Z" fill="white"/>
</svg>
