<svg width="141" height="141" viewBox="0 0 141 141" fill="none" xmlns="http://www.w3.org/2000/svg">
<path d="M30.2088 67.1024C42.1341 69.4875 43.7991 63.8911 43.7991 59.6441C39.5521 59.6441 40.4015 59.6442 33.6064 57.9454C33.5783 57.9384 33.5526 57.9244 33.5258 57.914C25.9618 53.6983 25.0166 54.2629 21.7148 50.3007C17.4678 45.2044 19.6111 39.6805 10.6726 40.9574C4.72684 41.8067 6.85033 47.5663 8.97382 52.6627C12.1591 60.3073 21.7148 65.4036 30.2088 67.1024Z" fill="#000000"/>
<path d="M98.5301 59.6441C98.5301 63.8911 100.195 69.4875 112.12 67.1024C120.614 65.4036 130.17 60.3073 133.355 52.6627C135.479 47.5663 137.602 41.8067 131.657 40.9574C122.718 39.6805 124.861 45.2044 120.614 50.3007C117.313 54.2629 116.367 53.6983 108.803 57.914C108.777 57.9244 108.751 57.9384 108.723 57.9454C101.928 59.6442 102.777 59.6441 98.5301 59.6441Z" fill="#000000"/>
</svg>
