<svg width="23" height="23" viewBox="0 0 23 23" fill="none" xmlns="http://www.w3.org/2000/svg">
<g clip-path="url(#clip0_9_5)">
<path d="M1.93296 19.459C3.01588 21.0057 7.72321 22.2209 9.94654 19.3248C12.352 20.4748 16.3195 20.1183 19.549 18.3166C19.9975 18.0665 20.423 17.7503 20.6828 17.3065C21.2702 16.3051 21.2846 14.9155 20.2132 12.8656C18.4259 8.40459 15.2126 4.48979 13.915 2.91525C13.6486 2.67184 11.9485 2.32684 10.9125 1.99525C10.4545 1.85438 9.6025 1.7595 8.58283 3.10309C8.09888 3.74038 5.90333 5.30438 8.68921 6.35663C9.12046 6.46684 9.43863 6.66904 11.407 6.30871C11.6639 6.26463 12.304 6.30871 12.7554 7.10125L13.6975 8.44867C13.786 8.57349 13.842 8.71842 13.8604 8.87034C14.0252 10.3078 14.0195 12.1057 14.8206 13.0161C13.5834 12.122 10.351 11.0592 7.91488 14.0827M1.91763 12.4008C3.01417 11.4232 4.41222 10.8503 5.87946 10.7773C7.34669 10.7042 8.79474 11.1354 9.98296 11.9993" stroke="#22AED1" stroke-width="2" stroke-linecap="round" stroke-linejoin="round"/>
</g>
<defs>
<clipPath id="clip0_9_5">
<rect width="23" height="23" fill="white"/>
</clipPath>
</defs>
</svg>
