<svg width="33" height="23" viewBox="0 0 33 23" fill="none" xmlns="http://www.w3.org/2000/svg">
<path d="M1.93295 19.459C3.01587 21.0057 7.7232 22.2209 9.94654 19.3248C12.352 20.4748 16.3195 20.1183 19.549 18.3166C19.9975 18.0665 20.423 17.7503 20.6827 17.3065C21.2702 16.3051 21.2846 14.9155 20.2132 12.8656C18.4259 8.40459 15.2126 4.48979 13.915 2.91525C13.6486 2.67184 11.9485 2.32684 10.9125 1.99525C10.4545 1.85438 9.60249 1.7595 8.58283 3.10309C8.09887 3.74038 5.90333 5.30438 8.6892 6.35663C9.12045 6.46684 9.43862 6.66904 11.407 6.30871C11.6639 6.26463 12.304 6.30871 12.7554 7.10125L13.6975 8.44867C13.786 8.57349 13.842 8.71842 13.8604 8.87034C14.0252 10.3078 14.0195 12.1057 14.8206 13.0161C13.5834 12.122 10.351 11.0592 7.91487 14.0827M1.91762 12.4008C3.01416 11.4232 4.41222 10.8503 5.87945 10.7773C7.34668 10.7042 8.79473 11.1354 9.98295 11.9993" stroke="#6D28D9" stroke-opacity="0.2" stroke-width="2" stroke-linecap="round" stroke-linejoin="round"/>
<path d="M5.01533 19.5407C6.09825 21.0875 10.8056 22.3026 13.0289 19.4066C15.4343 20.5566 19.4018 20.2001 22.6314 18.3984C23.0799 18.1483 23.5054 17.832 23.7651 17.3883C24.3526 16.3868 24.367 14.9973 23.2955 12.9474C21.5083 8.48634 18.295 4.57155 16.9974 2.99701C16.731 2.75359 15.0309 2.40859 13.9949 2.07701C13.5368 1.93613 12.6849 1.84126 11.6652 3.18484C11.1813 3.82213 8.98571 5.38613 11.7716 6.43838C12.2028 6.54859 12.521 6.7508 14.4894 6.39047C14.7463 6.34638 15.3864 6.39047 15.8378 7.18301L16.7798 8.53043C16.8684 8.65524 16.9244 8.80017 16.9428 8.95209C17.1076 10.3896 17.1018 12.1874 17.903 13.0978C16.6658 12.2037 13.4333 11.1409 10.9973 14.1645M5 12.4826C6.09654 11.505 7.4946 10.9321 8.96183 10.859C10.4291 10.786 11.8771 11.2172 13.0653 12.081" stroke="#6D28D9" stroke-opacity="0.4" stroke-width="2" stroke-linecap="round" stroke-linejoin="round"/>
<path d="M7.01533 19.5407C8.09825 21.0875 12.8056 22.3026 15.0289 19.4066C17.4343 20.5566 21.4018 20.2001 24.6314 18.3984C25.0799 18.1483 25.5054 17.832 25.7651 17.3883C26.3526 16.3868 26.367 14.9973 25.2955 12.9474C23.5083 8.48634 20.295 4.57155 18.9974 2.99701C18.731 2.75359 17.0309 2.40859 15.9949 2.07701C15.5368 1.93613 14.6849 1.84126 13.6652 3.18484C13.1813 3.82213 10.9857 5.38613 13.7716 6.43838C14.2028 6.54859 14.521 6.7508 16.4894 6.39047C16.7463 6.34638 17.3864 6.39047 17.8378 7.18301L18.7798 8.53043C18.8684 8.65524 18.9244 8.80017 18.9428 8.95209C19.1076 10.3896 19.1018 12.1874 19.903 13.0978C18.6658 12.2037 15.4333 11.1409 12.9973 14.1645M7 12.4826C8.09654 11.505 9.4946 10.9321 10.9618 10.859C12.4291 10.786 13.8771 11.2172 15.0653 12.081" stroke="#6D28D9" stroke-width="2" stroke-linecap="round" stroke-linejoin="round"/>
</svg>
