<svg width="27" height="23" viewBox="0 0 27 23" fill="none" xmlns="http://www.w3.org/2000/svg">
<path d="M1.93296 19.459C3.01588 21.0057 7.72321 22.2209 9.94654 19.3248C12.352 20.4748 16.3195 20.1183 19.549 18.3166C19.9975 18.0665 20.423 17.7503 20.6828 17.3065C21.2702 16.3051 21.2846 14.9155 20.2132 12.8656C18.4259 8.40459 15.2126 4.48979 13.915 2.91525C13.6486 2.67184 11.9485 2.32684 10.9125 1.99525C10.4545 1.85438 9.6025 1.7595 8.58283 3.10309C8.09888 3.74038 5.90333 5.30438 8.68921 6.35663C9.12046 6.46684 9.43863 6.66904 11.407 6.30871C11.6639 6.26463 12.304 6.30871 12.7554 7.10125L13.6975 8.44867C13.786 8.57349 13.842 8.71842 13.8604 8.87034C14.0252 10.3078 14.0195 12.1057 14.8206 13.0161C13.5834 12.122 10.351 11.0592 7.91488 14.0827M1.91763 12.4008C3.01417 11.4232 4.41222 10.8503 5.87946 10.7773C7.34669 10.7042 8.79474 11.1354 9.98296 11.9993" stroke="#EE8434" stroke-opacity="0.5" stroke-width="2" stroke-linecap="round" stroke-linejoin="round"/>
<path d="M4.01533 19.5407C5.09825 21.0875 9.80558 22.3026 12.0289 19.4066C14.4343 20.5566 18.4018 20.2001 21.6314 18.3984C22.0799 18.1483 22.5054 17.832 22.7651 17.3883C23.3526 16.3868 23.367 14.9973 22.2955 12.9474C20.5083 8.48634 17.295 4.57155 15.9974 2.99701C15.731 2.75359 14.0309 2.40859 12.9949 2.07701C12.5368 1.93613 11.6849 1.84126 10.6652 3.18484C10.1813 3.82213 7.98571 5.38613 10.7716 6.43838C11.2028 6.54859 11.521 6.7508 13.4894 6.39047C13.7463 6.34638 14.3864 6.39047 14.8378 7.18301L15.7798 8.53043C15.8684 8.65524 15.9244 8.80017 15.9428 8.95209C16.1076 10.3896 16.1018 12.1874 16.903 13.0978C15.6658 12.2037 12.4333 11.1409 9.99725 14.1645M4 12.4826C5.09654 11.505 6.4946 10.9321 7.96183 10.859C9.42906 10.786 10.8771 11.2172 12.0653 12.081" stroke="#EE8434" stroke-width="2" stroke-linecap="round" stroke-linejoin="round"/>
</svg>
