<svg width="512" height="512" viewBox="0 0 512 512" fill="none" xmlns="http://www.w3.org/2000/svg">
<g clip-path="url(#clip0_2_7)">
<rect width="512" height="512" fill="white"/>
<path d="M0 0H512V512H0V0Z" fill="#6D28D9"/>
<path d="M142.4 170.8H129.6V206H82.4V66H149.8C162.733 66 174 68.1333 183.6 72.4C193.2 76.6667 200.6 82.8 205.8 90.8C211 98.8 213.6 108.133 213.6 118.8C213.6 128.8 211.333 137.533 206.8 145C202.267 152.467 195.733 158.4 187.2 162.8L216.6 206H166.2L142.4 170.8ZM166 118.8C166 113.6 164.4 109.6 161.2 106.8C158 103.867 153.2 102.4 146.8 102.4H129.6V135.2H146.8C153.2 135.2 158 133.8 161.2 131C164.4 128.067 166 124 166 118.8ZM345.823 170.4V206H229.423V66H343.223V101.6H275.823V118H335.023V152H275.823V170.4H345.823ZM380.994 146.2C373.394 146.2 367.06 143.8 361.994 139C357.06 134.067 354.594 127.8 354.594 120.2C354.594 112.6 357.06 106.467 361.994 101.8C367.06 97 373.394 94.6 380.994 94.6C388.594 94.6 394.86 97 399.794 101.8C404.86 106.467 407.394 112.6 407.394 120.2C407.394 127.8 404.86 134.067 399.794 139C394.86 143.8 388.594 146.2 380.994 146.2ZM380.994 208C373.394 208 367.06 205.6 361.994 200.8C357.06 195.867 354.594 189.6 354.594 182C354.594 174.4 357.06 168.267 361.994 163.6C367.06 158.8 373.394 156.4 380.994 156.4C388.594 156.4 394.86 158.8 399.794 163.6C404.86 168.267 407.394 174.4 407.394 182C407.394 189.6 404.86 195.867 399.794 200.8C394.86 205.6 388.594 208 380.994 208ZM129.6 345.6V369.6H188V405.2H129.6V450H82.4V310H196.2V345.6H129.6ZM231.111 310H278.311V450H231.111V310ZM351.433 346.6H310.433V310H439.633V346.6H398.633V450H351.433V346.6Z" fill="white"/>
</g>
<defs>
<clipPath id="clip0_2_7">
<rect width="512" height="512" fill="white"/>
</clipPath>
</defs>
</svg>
