<svg width="912" height="1337" viewBox="0 0 912 1337" fill="none" xmlns="http://www.w3.org/2000/svg">
<g id="Lotty">
<g id="core">
<path d="M447.195 549.844C447.195 546.769 460.796 546 467.597 546C474.398 546 488 546.769 488 549.844C488 553.687 486.506 562.501 482.899 565.219C477.799 569.062 474.096 569.062 467.597 569.062C462.386 569.062 457.396 569.062 452.295 565.219L447.195 549.844Z" fill="#858585"/>
<path d="M452.295 565.219C445.082 559.783 447.195 552.406 447.195 549.844L452.295 565.219Z" fill="#858585"/>
<path d="M446.906 576.75C446.906 573.675 455.696 572.906 462.497 572.906C469.297 572.906 477.51 573.675 477.51 576.75C477.51 580.594 476.016 589.407 472.41 592.125C467.309 595.969 468.995 595.969 462.497 595.969C457.285 595.969 457.108 595.969 452.007 592.125L446.906 576.75Z" fill="#858585"/>
<path d="M452.007 592.125C444.793 586.689 446.906 579.312 446.906 576.75L452.007 592.125Z" fill="#858585"/>
<path d="M447.195 603.656C447.195 600.581 455.984 599.812 462.785 599.812C469.586 599.812 472.698 600.581 472.698 603.656C472.698 607.5 471.204 616.313 467.597 619.031C462.497 622.875 459.02 622.875 457.396 622.875C452.295 622.875 457.396 622.875 452.295 622.875L447.195 603.656Z" fill="#858585"/>
<path d="M452.295 622.875C442.094 622.875 447.195 606.219 447.195 603.656L452.295 622.875Z" fill="#858585"/>
<path d="M446.906 630.562C446.906 627.487 455.696 626.719 462.497 626.719C469.297 626.719 467.597 627.487 467.597 630.562C467.597 634.406 462.208 653.625 462.497 661.312C462.7 666.746 458.155 669 456.531 669C456.243 669 450.085 669 446.906 669L446.906 630.562Z" fill="#858585"/>
<path d="M446.906 669C443.728 669 446.906 633.125 446.906 630.562L446.906 669Z" fill="#858585"/>
<path d="M441.805 549.844C441.805 546.769 428.204 546 421.403 546C414.602 546 401 546.769 401 549.844C401 553.687 402.494 562.501 406.101 565.219C411.201 569.062 414.904 569.062 421.403 569.062C426.614 569.062 431.604 569.062 436.705 565.219L441.805 549.844Z" fill="#858585"/>
<path d="M436.705 565.219C443.918 559.783 441.805 552.406 441.805 549.844L436.705 565.219Z" fill="#858585"/>
<path d="M442.094 576.75C442.094 573.675 433.304 572.906 426.503 572.906C419.703 572.906 411.49 573.675 411.49 576.75C411.49 580.594 412.984 589.407 416.59 592.125C421.691 595.969 420.005 595.969 426.503 595.969C431.715 595.969 431.892 595.969 436.993 592.125L442.094 576.75Z" fill="#858585"/>
<path d="M436.993 592.125C444.207 586.689 442.094 579.312 442.094 576.75L436.993 592.125Z" fill="#858585"/>
<path d="M441.805 603.656C441.805 600.581 433.016 599.812 426.215 599.812C419.414 599.812 416.302 600.581 416.302 603.656C416.302 607.5 417.796 616.313 421.403 619.031C426.503 622.875 429.98 622.875 431.604 622.875C436.705 622.875 431.604 622.875 436.705 622.875L441.805 603.656Z" fill="#858585"/>
<path d="M436.705 622.875C446.906 622.875 441.805 606.219 441.805 603.656L436.705 622.875Z" fill="#858585"/>
<path d="M442.094 630.562C442.094 627.487 433.304 626.719 426.503 626.719C419.703 626.719 421.403 627.487 421.403 630.562C421.403 634.406 426.792 653.625 426.503 661.312C426.3 666.746 430.845 669 432.469 669C432.757 669 438.627 669 441.805 669L442.094 630.562Z" fill="#858585"/>
<path d="M441.805 669C444.984 669 442.094 633.125 442.094 630.562L441.805 669Z" fill="#858585"/>
<path d="M447.195 549.844C447.195 546.769 460.796 546 467.597 546C474.398 546 488 546.769 488 549.844C488 553.687 486.506 562.501 482.899 565.219C477.799 569.062 474.096 569.062 467.597 569.062C462.386 569.062 457.396 569.062 452.295 565.219L447.195 549.844Z" fill="#858585"/>
<path d="M452.295 565.219C445.082 559.783 447.195 552.406 447.195 549.844L452.295 565.219Z" fill="#858585"/>
<path d="M441.805 549.844C441.805 546.769 428.204 546 421.403 546C414.602 546 401 546.769 401 549.844C401 553.687 402.494 562.501 406.101 565.219C411.201 569.062 414.904 569.062 421.403 569.062C426.614 569.062 431.604 569.062 436.705 565.219L441.805 549.844Z" fill="#858585"/>
<path d="M436.705 565.219C443.918 559.783 441.805 552.406 441.805 549.844L436.705 565.219Z" fill="#858585"/>
</g>
<path id="Vector 54" d="M516.5 505.999C505.3 500.581 478.333 507.339 475 512.499C475 512.499 498.836 517.698 510.168 520.716C521.5 523.734 528.5 527.499 528.5 527.499H547.5C546.833 523.629 527.7 511.417 516.5 505.999Z" fill="white"/>
<path id="Vector 55" d="M570.462 516.972C558.064 515.926 535.308 531.896 534.045 537.908C534.045 537.908 558.161 534.222 569.822 532.98C581.483 531.738 589.368 532.746 589.368 532.746L607.106 525.939C605.098 522.565 582.859 518.018 570.462 516.972Z" fill="white"/>
<path id="Vector 56" d="M630.912 507.928C618.561 506.427 595.235 521.551 593.752 527.513C593.752 527.513 617.987 524.715 629.686 523.901C641.384 523.088 649.226 524.385 649.226 524.385L667.203 518.234C665.319 514.788 643.263 509.428 630.912 507.928Z" fill="white"/>
<path id="Vector 57" d="M675.911 490.813C663.471 491.051 642.483 509.282 641.847 515.393C641.847 515.393 665.455 509.24 676.925 506.802C688.396 504.364 696.342 504.554 696.342 504.554L713.285 495.954C710.939 492.805 688.35 490.576 675.911 490.813Z" fill="white"/>
<path id="Vector 58" d="M370.785 505.999C381.985 500.581 408.952 507.339 412.285 512.499C412.285 512.499 388.448 517.698 377.117 520.716C365.785 523.734 358.785 527.499 358.785 527.499H339.785C340.452 523.629 359.585 511.417 370.785 505.999Z" fill="white"/>
<path id="Vector 59" d="M316.823 516.972C329.221 515.926 351.977 531.896 353.24 537.908C353.24 537.908 329.123 534.222 317.463 532.98C305.802 531.738 297.917 532.746 297.917 532.746L280.178 525.939C282.187 522.565 304.425 518.018 316.823 516.972Z" fill="white"/>
<path id="Vector 60" d="M256.373 507.928C268.724 506.427 292.05 521.551 293.533 527.513C293.533 527.513 269.298 524.715 257.599 523.901C245.901 523.088 238.058 524.385 238.058 524.385L220.082 518.234C221.965 514.788 244.022 509.428 256.373 507.928Z" fill="white"/>
<path id="Vector 61" d="M211.374 490.813C223.814 491.051 244.801 509.282 245.438 515.393C245.438 515.393 221.83 509.24 210.359 506.802C198.889 504.364 190.943 504.554 190.943 504.554L174 495.954C176.346 492.805 198.935 490.576 211.374 490.813Z" fill="white"/>
</g>
</svg>
